<?xml version="1.0" standalone="no"?>
<!DOCTYPE svg PUBLIC "-//W3C//DTD SVG 20010904//EN"
 "http://www.w3.org/TR/2001/REC-SVG-20010904/DTD/svg10.dtd">
<svg version="1.0" xmlns="http://www.w3.org/2000/svg"
 width="500.000000pt" height="500.000000pt" viewBox="0 0 500.000000 500.000000"
 preserveAspectRatio="xMidYMid meet">

<g transform="translate(0.000000,500.000000) scale(0.100000,-0.100000)"
fill="#000000" stroke="none">
<path d="M3300 3750 c-95 -16 -166 -63 -201 -133 -17 -33 -20 -54 -17 -118 3
-67 7 -83 33 -121 38 -54 103 -98 197 -133 109 -42 184 -81 206 -110 27 -34
37 -96 22 -139 -39 -120 -220 -148 -457 -72 -22 7 -23 5 -23 -43 l0 -50 58
-18 c81 -25 287 -25 358 0 65 22 131 79 155 131 25 55 25 157 0 211 -31 69
-89 106 -295 191 -117 47 -166 109 -153 191 14 82 76 122 192 123 61 0 102 -7
201 -36 18 -5 24 1 37 40 l16 46 -52 15 c-52 16 -175 35 -212 34 -11 -1 -40
-5 -65 -9z"/>
<path d="M1410 3270 l0 -470 260 0 260 0 0 50 0 50 -205 0 -205 0 0 175 0 175
195 0 195 0 0 45 0 45 -195 0 -195 0 0 155 0 155 205 0 205 0 0 45 0 45 -260
0 -260 0 0 -470z"/>
<path d="M2150 3270 l0 -470 50 0 50 0 2 223 3 222 253 3 252 2 0 -225 0 -225
50 0 50 0 0 470 0 470 -50 0 -50 0 0 -200 0 -200 -252 2 -253 3 -3 198 -2 197
-50 0 -50 0 0 -470z"/>
<path d="M1125 2451 c-7 -22 -36 -32 -57 -20 -20 11 -43 -14 -34 -37 9 -23 -2
-54 -20 -54 -27 0 -29 -31 -3 -51 18 -13 24 -27 24 -56 0 -37 1 -38 38 -38 29
0 43 -6 56 -24 20 -26 51 -24 51 3 0 18 31 29 54 20 25 -10 48 14 35 37 -12
23 4 59 26 59 9 0 15 10 15 25 0 15 -6 25 -15 25 -21 0 -39 38 -25 55 15 19
-16 50 -35 35 -16 -13 -49 1 -59 25 -8 21 -43 19 -51 -4z m70 -96 c28 -27 30
-37 14 -68 -15 -28 -28 -37 -58 -37 -57 0 -85 82 -39 114 32 22 55 20 83 -9z"/>
<path d="M2490 2405 c0 -8 5 -15 10 -15 6 0 10 7 10 15 0 8 -4 15 -10 15 -5 0
-10 -7 -10 -15z"/>
<path d="M1381 2388 c-5 -13 -19 -48 -31 -78 -41 -102 -40 -100 -27 -100 7 0
18 14 24 30 10 27 16 30 53 30 37 0 43 -3 53 -30 6 -16 17 -30 24 -30 9 0 6
18 -11 63 -55 145 -67 162 -85 115z m38 -49 c6 -18 11 -34 11 -35 0 -2 -14 -4
-31 -4 -26 0 -30 3 -24 18 4 9 10 25 12 35 8 26 20 21 32 -14z"/>
<path d="M1700 2385 c0 -7 -7 -18 -16 -23 -11 -6 -13 -11 -5 -16 6 -4 11 -27
11 -52 0 -58 14 -84 45 -84 14 0 25 5 25 10 0 6 -9 10 -20 10 -18 0 -20 7 -20
55 0 48 2 55 20 55 11 0 20 5 20 10 0 6 -9 10 -20 10 -13 0 -20 7 -20 20 0 11
-4 20 -10 20 -5 0 -10 -7 -10 -15z"/>
<path d="M2401 2393 c-1 -6 -9 -19 -18 -29 -13 -13 -14 -19 -5 -22 7 -2 12
-23 12 -56 0 -29 5 -57 12 -64 15 -15 58 -16 58 -2 0 6 -9 10 -19 10 -23 0
-31 19 -31 71 0 32 3 39 19 39 11 0 23 5 26 10 3 6 -3 10 -15 10 -12 0 -24 9
-30 23 -5 12 -9 17 -9 10z"/>
<path d="M3411 2393 c-1 -6 -9 -19 -18 -29 -13 -13 -14 -19 -5 -22 7 -2 12
-23 12 -56 0 -29 5 -57 12 -64 15 -15 58 -16 58 -2 0 6 -9 10 -19 10 -23 0
-31 19 -31 71 0 32 3 39 19 39 11 0 23 5 26 10 3 6 -3 10 -15 10 -12 0 -24 9
-30 23 -5 12 -9 17 -9 10z"/>
<path d="M1828 2358 c-18 -6 -31 -21 -38 -42 -18 -56 13 -106 65 -106 42 0 65
27 65 77 0 58 -40 89 -92 71z m50 -24 c38 -27 23 -104 -21 -104 -13 0 -28 5
-35 12 -17 17 -15 74 4 92 19 20 24 20 52 0z"/>
<path d="M2012 2359 c-12 -5 -29 -6 -37 -3 -13 5 -15 -6 -15 -70 0 -61 3 -76
15 -76 12 0 15 13 15 60 0 50 3 61 21 70 34 19 49 -4 49 -71 0 -75 16 -77 22
-3 5 64 27 91 59 73 15 -8 19 -21 19 -69 0 -33 4 -60 10 -60 11 0 14 119 2
136 -13 19 -39 23 -66 9 -14 -8 -28 -10 -31 -6 -8 14 -39 19 -63 10z"/>
<path d="M2263 2362 c-13 -2 -23 -8 -23 -14 0 -6 10 -8 22 -5 26 7 58 -8 58
-28 0 -10 -10 -15 -31 -15 -42 0 -69 -17 -69 -43 0 -30 18 -47 50 -47 14 0 31
5 38 12 9 9 12 9 12 0 0 -7 5 -12 10 -12 15 0 13 126 -2 137 -19 14 -40 19
-65 15z m57 -95 c0 -20 -21 -37 -46 -37 -27 0 -36 12 -28 34 8 20 74 23 74 3z"/>
<path d="M2598 2358 c-18 -6 -31 -21 -38 -42 -18 -56 13 -106 65 -106 42 0 65
27 65 77 0 58 -40 89 -92 71z m50 -24 c38 -27 23 -104 -21 -104 -13 0 -28 5
-35 12 -17 17 -15 74 4 92 19 20 24 20 52 0z"/>
<path d="M2782 2359 c-12 -5 -29 -6 -37 -3 -13 5 -15 -6 -15 -70 0 -61 3 -76
15 -76 12 0 15 13 15 60 0 49 3 61 20 70 14 8 26 8 40 0 17 -9 20 -21 20 -70
0 -33 4 -60 10 -60 15 0 13 126 -2 137 -22 17 -42 21 -66 12z"/>
<path d="M3003 2360 c-38 -16 -30 -56 15 -77 20 -10 37 -25 37 -33 0 -10 -12
-16 -37 -18 -50 -4 -49 -22 1 -22 71 0 82 51 18 85 -55 30 -45 60 16 48 16 -3
27 -1 27 6 0 6 -6 11 -14 11 -8 0 -20 2 -28 4 -7 3 -23 1 -35 -4z"/>
<path d="M3283 2360 c-38 -16 -30 -56 15 -77 20 -10 37 -25 37 -33 0 -10 -12
-16 -37 -18 -50 -4 -49 -22 1 -22 71 0 82 51 18 85 -55 30 -45 60 16 48 16 -3
27 -1 27 6 0 6 -6 11 -14 11 -8 0 -20 2 -28 4 -7 3 -23 1 -35 -4z"/>
<path d="M3530 2357 c-43 -22 -51 -95 -14 -131 17 -18 94 -22 94 -6 0 6 -15
10 -33 10 -34 0 -57 15 -57 37 0 9 16 13 50 13 46 0 50 2 50 23 0 42 -52 73
-90 54z m48 -19 c23 -23 13 -38 -23 -38 -39 0 -48 21 -17 39 22 13 26 13 40
-1z"/>
<path d="M3709 2359 c-8 -5 -22 -6 -31 -3 -16 5 -18 -3 -18 -70 0 -91 16 -101
22 -15 5 74 28 97 62 63 11 -10 16 -34 16 -70 0 -30 5 -54 10 -54 6 0 10 24
10 54 0 58 20 92 47 82 8 -3 17 -6 19 -6 2 0 4 -29 4 -65 0 -51 3 -65 15 -65
12 0 15 13 15 58 0 82 -31 114 -84 87 -14 -8 -28 -10 -31 -6 -8 14 -42 19 -56
10z"/>
<path d="M1520 2297 c0 -69 10 -87 50 -87 14 0 31 5 38 12 9 9 12 9 12 0 0 -7
5 -12 10 -12 6 0 10 32 10 75 0 43 -4 75 -10 75 -5 0 -10 -24 -10 -54 0 -59
-14 -80 -52 -74 -21 3 -23 9 -26 66 -4 81 -22 81 -22 -1z"/>
<path d="M2490 2285 c0 -43 4 -75 10 -75 6 0 10 32 10 75 0 43 -4 75 -10 75
-6 0 -10 -32 -10 -75z"/>
<path d="M3105 2341 c3 -11 17 -47 30 -78 25 -62 21 -91 -16 -100 -24 -7 -25
-23 -1 -23 29 0 48 28 85 128 25 65 31 92 22 92 -7 0 -21 -24 -31 -52 -24 -76
-25 -77 -49 -13 -12 33 -27 61 -34 63 -9 3 -11 -2 -6 -17z"/>
</g>
</svg>
