<svg version="1.1" xmlns="http://www.w3.org/2000/svg" xmlns:xlink="http://www.w3.org/1999/xlink" width="24" height="24" viewBox="0,0,256,256"><g fill="#ffffff" fill-rule="nonzero" stroke="none" stroke-width="1" stroke-linecap="butt" stroke-linejoin="miter" stroke-miterlimit="10" stroke-dasharray="" stroke-dashoffset="0" font-family="none" font-weight="none" font-size="none" text-anchor="none" style="mix-blend-mode: normal"><g transform="translate(0,256) scale(0.26667,0.26667)"><path d="M0,-240v-63c0,-28.66667 14.66667,-52 44,-70c29.33333,-18 68,-27 116,-27c8.66667,0 17,0.16667 25,0.5c8,0.33333 15.66667,1.16667 23,2.5c-9.33333,14 -16.33333,28.66667 -21,44c-4.66667,15.33333 -7,31.33333 -7,48v65zM240,-240v-65c0,-21.33333 5.83333,-40.83333 17.5,-58.5c11.66667,-17.66667 28.16667,-33.16667 49.5,-46.5c21.33333,-13.33333 46.83333,-23.33333 76.5,-30c29.66667,-6.66667 61.83333,-10 96.5,-10c35.33333,0 67.83333,3.33333 97.5,10c29.66667,6.66667 55.16667,16.66667 76.5,30c21.33333,13.33333 37.66667,28.83333 49,46.5c11.33333,17.66667 17,37.16667 17,58.5v65zM780,-240v-65c0,-17.33333 -2.16667,-33.66667 -6.5,-49c-4.33333,-15.33333 -10.83333,-29.66667 -19.5,-43c7.33333,-1.33333 14.83333,-2.16667 22.5,-2.5c7.66667,-0.33333 15.5,-0.5 23.5,-0.5c48,0 86.66667,8.83333 116,26.5c29.33333,17.66667 44,41.16667 44,70.5v63zM325,-320h311c-6.66667,-13.33333 -25.16667,-25 -55.5,-35c-30.33333,-10 -63.83333,-15 -100.5,-15c-36.66667,0 -70.16667,5 -100.5,15c-30.33333,10 -48.5,21.66667 -54.5,35zM160,-440c-22,0 -40.83333,-7.83333 -56.5,-23.5c-15.66667,-15.66667 -23.5,-34.5 -23.5,-56.5c0,-22.66667 7.83333,-41.66667 23.5,-57c15.66667,-15.33333 34.5,-23 56.5,-23c22.66667,0 41.66667,7.66667 57,23c15.33333,15.33333 23,34.33333 23,57c0,22 -7.66667,40.83333 -23,56.5c-15.33333,15.66667 -34.33333,23.5 -57,23.5zM800,-440c-22,0 -40.83333,-7.83333 -56.5,-23.5c-15.66667,-15.66667 -23.5,-34.5 -23.5,-56.5c0,-22.66667 7.83333,-41.66667 23.5,-57c15.66667,-15.33333 34.5,-23 56.5,-23c22.66667,0 41.66667,7.66667 57,23c15.33333,15.33333 23,34.33333 23,57c0,22 -7.66667,40.83333 -23,56.5c-15.33333,15.66667 -34.33333,23.5 -57,23.5zM480,-480c-33.33333,0 -61.66667,-11.66667 -85,-35c-23.33333,-23.33333 -35,-51.66667 -35,-85c0,-34 11.66667,-62.5 35,-85.5c23.33333,-23 51.66667,-34.5 85,-34.5c34,0 62.5,11.5 85.5,34.5c23,23 34.5,51.5 34.5,85.5c0,33.33333 -11.5,61.66667 -34.5,85c-23,23.33333 -51.5,35 -85.5,35zM480,-560c11.33333,0 20.83333,-3.83333 28.5,-11.5c7.66667,-7.66667 11.5,-17.16667 11.5,-28.5c0,-11.33333 -3.83333,-20.83333 -11.5,-28.5c-7.66667,-7.66667 -17.16667,-11.5 -28.5,-11.5c-11.33333,0 -20.83333,3.83333 -28.5,11.5c-7.66667,7.66667 -11.5,17.16667 -11.5,28.5c0,11.33333 3.83333,20.83333 11.5,28.5c7.66667,7.66667 17.16667,11.5 28.5,11.5zM481,-320zM480,-600z"></path></g></g></svg>