<svg version="1.1" xmlns="http://www.w3.org/2000/svg" xmlns:xlink="http://www.w3.org/1999/xlink" width="40" height="40" viewBox="0,0,256,256"><g fill="#ffffff" fill-rule="nonzero" stroke="none" stroke-width="1" stroke-linecap="butt" stroke-linejoin="miter" stroke-miterlimit="10" stroke-dasharray="" stroke-dashoffset="0" font-family="none" font-weight="none" font-size="none" text-anchor="none" style="mix-blend-mode: normal"><g transform="translate(-0.08893,256.17787) scale(0.26667,0.26667)"><path d="M395.718,-98.667l-16.923,-119.872c-11.402,-3.726 -24.65133,-9.66433 -39.748,-17.815c-15.09667,-8.15133 -27.69367,-16.89667 -37.791,-26.236l-111.692,48.692l-84.102,-151.743l95.179,-72.469c-0.61533,-6.32133 -1.33333,-13.38967 -2.154,-21.205c-0.82,-7.81533 -1.23,-15.23167 -1.23,-22.249c0,-6.00333 0.41,-12.637 1.23,-19.901c0.82067,-7.26467 1.53867,-15.22067 2.154,-23.868l-95.179,-71.539l84.102,-148.359l108.256,46.744c11.59,-9.248 24.72267,-18.05133 39.398,-26.41c14.67533,-8.35933 28.389,-14.76967 41.141,-19.231l17.359,-118.539h169.23l15.924,119.641c14.29067,5.48733 27.98733,11.98333 41.09,19.488c13.102,7.504 25.48233,15.96533 37.141,25.384l112.512,-47.077l83.59,148.359l-100.256,74.359c1.64067,7.79467 2.81133,15.376 3.512,22.744c0.70133,7.36733 1.052,13.957 1.052,19.769c0,5.29933 -0.47867,11.607 -1.436,18.923c-0.95733,7.31667 -1.69233,15.24833 -2.205,23.795l97.23,71.641l-84.102,151.743l-112.897,-49.461c-11.88067,9.88 -24.15867,18.68767 -36.834,26.423c-12.67533,7.73533 -25.141,13.50033 -37.397,17.295l-16.924,120.974zM438.538,-149.846h81.579l14.845,-111.256c20.914,-5.33333 40.009,-12.90033 57.285,-22.701c17.27533,-9.8 34.977,-23.182 53.105,-40.146l100.417,43.488l40.257,-69.129l-88.462,-66.897c2.88933,-11.87267 5.15,-23.04833 6.782,-33.527c1.63267,-10.47867 2.449,-20.921 2.449,-31.327c0,-11.26 -0.735,-21.55233 -2.205,-30.877c-1.47,-9.32467 -3.47867,-20.13233 -6.026,-32.423l89,-67.103l-38.923,-69.128l-103.846,42.564c-12.54733,-14.154 -29.34233,-27.577 -50.385,-40.269c-21.04267,-12.692 -41.26,-20.57667 -60.652,-23.654l-11.63,-109.256h-84.513l-11.128,108.154c-22.92267,4.87133 -43.51667,12.52933 -61.782,22.974c-18.26467,10.44467 -35.80733,24.29067 -52.628,41.538l-99.863,-42.051l-41.112,69.128l87.872,66.052c-3.23067,10.85467 -5.53833,21.61533 -6.923,32.282c-1.38467,10.66667 -2.077,21.437 -2.077,32.311c0,9.844 0.69233,20.065 2.077,30.663c1.38467,10.59867 3.436,22.026 6.154,34.282l-87.103,66.564l40.923,69.129l100.283,-42.795c17.67467,17.624 35.56333,31.35033 53.666,41.179c18.10267,9.82933 38.01733,17.41067 59.744,22.744zM476.436,-365.744c32.30067,0 59.64067,-11.18033 82.02,-33.541c22.38,-22.36133 33.57,-49.67933 33.57,-81.954c0,-32.27467 -11.19,-59.624 -33.57,-82.048c-22.37933,-22.424 -49.71933,-33.636 -82.02,-33.636c-31.966,0 -59.22233,11.18067 -81.769,33.542c-22.54733,22.36067 -33.821,49.67833 -33.821,81.953c0,32.27533 11.27367,59.62467 33.821,82.048c22.54667,22.424 49.803,33.636 81.769,33.636zM479.667,-481z"></path></g></g></svg>