<svg version="1.1" xmlns="http://www.w3.org/2000/svg" xmlns:xlink="http://www.w3.org/1999/xlink" width="24" height="24" viewBox="0,0,256,256"><g fill="#ffffff" fill-rule="nonzero" stroke="none" stroke-width="1" stroke-linecap="butt" stroke-linejoin="miter" stroke-miterlimit="10" stroke-dasharray="" stroke-dashoffset="0" font-family="none" font-weight="none" font-size="none" text-anchor="none" style="mix-blend-mode: normal"><g transform="translate(0,260.53333) scale(0.26667,0.26667)"><path d="M480,-132c-44,-34 -92,-61.16667 -144,-81.5c-52,-20.33333 -106.66667,-33.16667 -164,-38.5v-354c59.33333,4.66667 115.5,20 168.5,46c53,26 99.5,56.66667 139.5,92c40,-35.33333 86.5,-66 139.5,-92c53,-26 109.16667,-41.33333 168.5,-46v354c-57.33333,5.33333 -112,18.16667 -164,38.5c-52,20.33333 -100,47.5 -144,81.5zM480,-166c42,-30.66667 86.66667,-55.477 134,-74.431c47.33333,-18.954 96,-31.477 146,-37.569v-296c-53.33333,8.66667 -103.83333,25.33333 -151.5,50c-47.66667,24.66667 -90.5,56 -128.5,94c-38,-38 -80.83333,-69.33333 -128.5,-94c-47.66667,-24.66667 -98.16667,-41.33333 -151.5,-50v296c50,6.092 98.66667,18.615 146,37.569c47.33333,18.954 92,43.76433 134,74.431zM480,-622c-33,0 -61.25,-11.75 -84.75,-35.25c-23.5,-23.5 -35.25,-51.75 -35.25,-84.75c0,-33 11.75,-61.25 35.25,-84.75c23.5,-23.5 51.75,-35.25 84.75,-35.25c33,0 61.25,11.75 84.75,35.25c23.5,23.5 35.25,51.75 35.25,84.75c0,33 -11.75,61.25 -35.25,84.75c-23.5,23.5 -51.75,35.25 -84.75,35.25zM480.035,-650c25.31,0 46.965,-9.01167 64.965,-27.035c18,-18.024 27,-39.69067 27,-65c0,-25.31 -9.01167,-46.965 -27.035,-64.965c-18.024,-18 -39.69067,-27 -65,-27c-25.31,0 -46.965,9.01167 -64.965,27.035c-18,18.024 -27,39.69067 -27,65c0,25.31 9.01167,46.965 27.035,64.965c18.024,18 39.69067,27 65,27zM480,-742zM480,-430z"></path></g></g></svg>