<svg version="1.1" xmlns="http://www.w3.org/2000/svg" xmlns:xlink="http://www.w3.org/1999/xlink" width="24" height="24" viewBox="0,0,256,256"><g fill="#ffffff" fill-rule="nonzero" stroke="none" stroke-width="1" stroke-linecap="butt" stroke-linejoin="miter" stroke-miterlimit="10" stroke-dasharray="" stroke-dashoffset="0" font-family="none" font-weight="none" font-size="none" text-anchor="none" style="mix-blend-mode: normal"><g transform="translate(0,256) scale(0.26667,0.26667)"><path d="M416,-132l-14,-112c-14,-4 -29.5,-10.66667 -46.5,-20c-17,-9.33333 -31.16667,-19.33333 -42.5,-30l-103,44l-64,-112l89,-67c-1.33333,-8 -2.5,-16.33333 -3.5,-25c-1,-8.66667 -1.5,-17 -1.5,-25c0,-7.33333 0.5,-15.16667 1.5,-23.5c1,-8.33333 2.16667,-17.83333 3.5,-28.5l-89,-67l64,-110l102,43c13.33333,-11.33333 27.83333,-21.5 43.5,-30.5c15.66667,-9 30.83333,-15.83333 45.5,-20.5l15,-112h128l14,113c17.33333,6 32.5,12.83333 45.5,20.5c13,7.66667 26.5,17.5 40.5,29.5l106,-43l64,110l-93,70c2.66667,9.33333 4.16667,17.83333 4.5,25.5c0.33333,7.66667 0.5,15.16667 0.5,22.5c0,6.66667 -0.33333,13.83333 -1,21.5c-0.66667,7.66667 -2,17.16667 -4,28.5l91,68l-64,112l-104,-45c-14,12 -28,22.16667 -42,30.5c-14,8.33333 -28.66667,14.83333 -44,19.5l-14,113zM440,-160h78l15,-109c20,-5.33333 37.83333,-12.5 53.5,-21.5c15.66667,-9 32.16667,-21.83333 49.5,-38.5l100,43l40,-68l-88,-66c3.33333,-12 5.5,-22.66667 6.5,-32c1,-9.33333 1.5,-18.66667 1.5,-28c0,-10 -0.5,-19.33333 -1.5,-28c-1,-8.66667 -3.16667,-18.66667 -6.5,-30l90,-68l-40,-68l-103,43c-11.33333,-12.66667 -27.16667,-25 -47.5,-37c-20.33333,-12 -38.83333,-19.66667 -55.5,-23l-12,-109h-80l-12,108c-20,4 -38.33333,10.66667 -55,20c-16.66667,9.33333 -33.66667,22.66667 -51,40l-100,-42l-40,68l87,65c-3.33333,8.66667 -5.66667,18.33333 -7,29c-1.33333,10.66667 -2,21.66667 -2,33c0,10 0.66667,20 2,30c1.33333,10 3.33333,19.66667 6,29l-86,66l40,68l99,-42c16,16 32.33333,28.66667 49,38c16.66667,9.33333 35.66667,16.66667 57,22zM478,-392c24.66667,0 45.5,-8.5 62.5,-25.5c17,-17 25.5,-37.83333 25.5,-62.5c0,-24.66667 -8.5,-45.5 -25.5,-62.5c-17,-17 -37.83333,-25.5 -62.5,-25.5c-24.66667,0 -45.5,8.5 -62.5,25.5c-17,17 -25.5,37.83333 -25.5,62.5c0,24.66667 8.5,45.5 25.5,62.5c17,17 37.83333,25.5 62.5,25.5zM480,-480z"></path></g></g></svg>