<svg version="1.1" xmlns="http://www.w3.org/2000/svg" xmlns:xlink="http://www.w3.org/1999/xlink" width="24" height="24" viewBox="0,0,256,256"><g fill="#ffffff" fill-rule="nonzero" stroke="none" stroke-width="1" stroke-linecap="butt" stroke-linejoin="miter" stroke-miterlimit="10" stroke-dasharray="" stroke-dashoffset="0" font-family="none" font-weight="none" font-size="none" text-anchor="none" style="mix-blend-mode: normal"><g transform="translate(0,250.66667) scale(0.26667,0.26667)"><path d="M98,-270l-23,-17l168,-269l120,140l158,-256l74,112c-5.33333,1.33333 -10.16667,2.5 -14.5,3.5c-4.33333,1 -8.83333,2.16667 -13.5,3.5l-45,-67l-154,251l-121,-141zM863,-77l-141,-139c-11.33333,8.66667 -23.66667,15.33333 -37,20c-13.33333,4.66667 -27.33333,7 -42,7c-36,0 -66.33333,-12.33333 -91,-37c-24.66667,-24.66667 -37,-55 -37,-91c0,-36 12.33333,-66.33333 37,-91c24.66667,-24.66667 55,-37 91,-37c36,0 66.33333,12.33333 91,37c24.66667,24.66667 37,55 37,91c0,15.33333 -2.5,29.83333 -7.5,43.5c-5,13.66667 -12.16667,26.16667 -21.5,37.5l141,139zM643,-217c28,0 51.66667,-9.66667 71,-29c19.33333,-19.33333 29,-43 29,-71c0,-28 -9.66667,-51.66667 -29,-71c-19.33333,-19.33333 -43,-29 -71,-29c-28,0 -51.66667,9.66667 -71,29c-19.33333,19.33333 -29,43 -29,71c0,28 9.66667,51.66667 29,71c19.33333,19.33333 43,29 71,29zM712,-555c-4.66667,-1.33333 -9.16667,-2.5 -13.5,-3.5c-4.33333,-1 -8.83333,-1.83333 -13.5,-2.5l177,-282l23,17z"></path></g></g></svg>